<?xml version="1.0" encoding="UTF-8" standalone="no"?><!-- Generator: Gravit.io --><svg xmlns="http://www.w3.org/2000/svg" xmlns:xlink="http://www.w3.org/1999/xlink" style="isolation:isolate" viewBox="0 0 24 24" width="24pt" height="24pt"><defs><clipPath id="_clipPath_hyjvTT72qwqAfjJ8xLyBDWerl91DMGce"><rect width="24" height="24"/></clipPath></defs><g clip-path="url(#_clipPath_hyjvTT72qwqAfjJ8xLyBDWerl91DMGce)"><path d="M 3 6 L 17 6 C 18.104 6 19 6.896 19 8 L 19 16 C 19 17.104 18.104 18 17 18 L 3 18 C 1.896 18 1 17.104 1 16 L 1 8 C 1 6.896 1.896 6 3 6 Z" style="fill:none;stroke:#FFFFFF;stroke-width:2;stroke-linecap:round;stroke-linejoin:round;stroke-miterlimit:2;"/><line x1="23" y1="13" x2="23" y2="11" vector-effect="non-scaling-stroke" stroke-width="2" stroke="rgb(255,255,255)" stroke-linejoin="round" stroke-linecap="round" stroke-miterlimit="4"/><path d="M 3.76 8 L 16.24 8 C 16.659 8 17 8.341 17 8.76 L 17 15.24 C 17 15.659 16.659 16 16.24 16 L 3.76 16 C 3.341 16 3 15.659 3 15.24 L 3 8.76 C 3 8.341 3.341 8 3.76 8 Z" style="stroke:none;fill:#FFFFFF;stroke-linecap:round;stroke-linejoin:round;stroke-miterlimit:2;"/></g></svg>